<svg xmlns="http://www.w3.org/2000/svg" viewBox="0 0 200 200" width="200" height="200">
  <!-- SIRAYA Logo - Minimalist S -->
  <defs>
    <linearGradient id="blueGradient" x1="0%" y1="0%" x2="100%" y2="100%">
      <stop offset="0%" style="stop-color:#4A90E2;stop-opacity:1" />
      <stop offset="100%" style="stop-color:#357ABD;stop-opacity:1" />
    </linearGradient>
  </defs>
  
  <!-- Stylized S -->
  <path d="M 100 40 
           C 140 40, 160 60, 160 85
           C 160 105, 145 115, 125 120
           C 145 125, 160 135, 160 155
           C 160 180, 140 200, 100 200
           C 60 200, 40 180, 40 155
           L 70 155
           C 70 165, 80 175, 100 175
           C 120 175, 130 165, 130 155
           C 130 140, 115 135, 100 135
           L 100 110
           C 115 110, 130 105, 130 85
           C 130 75, 120 65, 100 65
           C 80 65, 70 75, 70 85
           L 40 85
           C 40 60, 60 40, 100 40 Z"
        fill="url(#blueGradient)" />
</svg>

